<svg xmlns="http://www.w3.org/2000/svg" viewBox="0 0 900 1100">
  <defs>
    <linearGradient id="sky" x1="0" y1="0" x2="0" y2="1">
      <stop offset="0" stop-color="#dce9d7"/>
      <stop offset=".52" stop-color="#eef3e9"/>
      <stop offset="1" stop-color="#fbfcf7"/>
    </linearGradient>
    <linearGradient id="g1" x1="0" y1="0" x2="1" y2="1"><stop stop-color="#77906d"/><stop offset="1" stop-color="#b7c7a9"/></linearGradient>
    <linearGradient id="g2" x1="0" y1="0" x2="1" y2="1"><stop stop-color="#526f4c"/><stop offset="1" stop-color="#8ea384"/></linearGradient>
    <filter id="blur"><feGaussianBlur stdDeviation="20"/></filter>
  </defs>
  <rect width="900" height="1100" fill="url(#sky)"/>
  <circle cx="742" cy="282" r="92" fill="#fff3b2" opacity=".5" filter="url(#blur)"/>
  <circle cx="742" cy="282" r="58" fill="#fff8cf" opacity=".92"/>
  <path d="M0 500 C105 430 205 480 325 410 C455 335 560 455 695 365 C780 310 835 365 900 338 L900 770 L0 770Z" fill="url(#g1)" opacity=".40"/>
  <path d="M0 635 C115 555 238 620 360 535 C480 452 588 585 730 485 C798 438 850 482 900 462 L900 835 L0 835Z" fill="url(#g2)" opacity=".54"/>
  <path d="M0 708 C140 665 290 720 440 690 C580 662 740 625 900 670 L900 845 C738 812 585 835 430 815 C270 794 135 828 0 806Z" fill="#dce6d4" opacity=".78"/>
  <ellipse cx="75" cy="260" rx="125" ry="255" fill="#8aa17f" opacity=".20" filter="url(#blur)"/>
  <path d="M85 160 C135 200 168 250 184 310 C130 288 90 248 60 198Z" fill="#5a744f" opacity=".18"/>
  <path d="M40 300 C98 315 140 345 174 390 C108 382 64 360 24 326Z" fill="#5a744f" opacity=".16"/>
</svg>
